<svg width="44" height="33" viewBox="0 0 44 33" fill="none" xmlns="http://www.w3.org/2000/svg">
<path d="M15.2273 21H0.500004M0.500004 21V1H20.5C20.5 1 20.5 6.88852 20.5 10.6616M0.500004 21L8 26.625H19.3358M14.6212 18.5L26.6212 2.5L42.6212 14.5L30.6212 30.5M14.6212 18.5L30.6212 30.5M14.6212 18.5L16 24.1875L26.5 31.86L30.6212 30.5M29 8.46905C29.2761 8.46905 29.5 8.69291 29.5 8.96905C29.5 9.24519 29.2761 9.46905 29 9.46905C28.7239 9.46905 28.5 9.24519 28.5 8.96905C28.5 8.69291 28.7239 8.46905 29 8.46905ZM25.4563 12.781C25.7325 12.781 25.9563 13.0049 25.9563 13.281C25.9563 13.5572 25.7325 13.781 25.4563 13.781C25.1802 13.781 24.9563 13.5572 24.9563 13.281C24.9563 13.0049 25.1802 12.781 25.4563 12.781ZM22 17.526C22.2761 17.526 22.5 17.7499 22.5 18.026C22.5 18.3022 22.2761 18.526 22 18.526C21.7239 18.526 21.5 18.3022 21.5 18.026C21.5 17.7499 21.7239 17.526 22 17.526ZM35.7689 13.469C36.045 13.469 36.2689 13.6929 36.2689 13.969C36.2689 14.2452 36.045 14.469 35.7689 14.469C35.4927 14.469 35.2689 14.2452 35.2689 13.969C35.2689 13.6929 35.4927 13.469 35.7689 13.469ZM32.2252 17.781C32.5013 17.781 32.7252 18.0049 32.7252 18.281C32.7252 18.5572 32.5013 18.781 32.2252 18.781C31.949 18.781 31.7252 18.5572 31.7252 18.281C31.7252 18.0049 31.949 17.781 32.2252 17.781ZM29 22.5C29.2761 22.5 29.5 22.7239 29.5 23C29.5 23.2761 29.2761 23.5 29 23.5C28.7239 23.5 28.5 23.2761 28.5 23C28.5 22.7239 28.7239 22.5 29 22.5ZM10.6319 10.5C10.908 10.5 11.1319 10.7239 11.1319 11C11.1319 11.2761 10.908 11.5 10.6319 11.5C10.3558 11.5 10.1319 11.2761 10.1319 11C10.1319 10.7239 10.3558 10.5 10.6319 10.5ZM5 5C5.27615 5 5.5 5.22386 5.5 5.5C5.5 5.77614 5.27615 6 5 6C4.72386 6 4.5 5.77614 4.5 5.5C4.5 5.22386 4.72386 5 5 5ZM15.4784 15.1458C15.7546 15.1458 15.9784 15.3697 15.9784 15.6458C15.9784 15.9219 15.7546 16.1458 15.4784 16.1458C15.2023 16.1458 14.9784 15.9219 14.9784 15.6458C14.9784 15.3697 15.2023 15.1458 15.4784 15.1458ZM11.8 23.7C12.0761 23.7 12.5 23.7239 12.5 24C12.5 24.2761 12.2761 24.3 12 24.3C11.7239 24.3 11.5 24.2761 11.5 24C11.5 23.7239 11.5239 23.7 11.8 23.7ZM18.7077 23.2C18.9839 23.2 19.2077 23.4239 19.2077 23.7C19.2077 23.9761 19.2839 23.9 19.0077 23.9C18.7316 23.9 18.5077 23.6761 18.5077 23.4C18.5077 23.1239 18.4316 23.2 18.7077 23.2ZM24.2 28.3C24.4761 28.3 24.7 28.5239 24.7 28.8C24.7 29.0761 24.7761 29 24.5 29C24.2239 29 24 28.7761 24 28.5C24 28.2239 23.9239 28.3 24.2 28.3Z" stroke="black"/>
</svg>
