<svg width="85" height="73" viewBox="0 0 85 73" fill="none" xmlns="http://www.w3.org/2000/svg">
<path d="M42.5 69.0001V45.5001M42.5 69.0001C44 67.5 45.5 67 47 66.5001L77.5 54.5001L55 41.7173M42.5 69.0001C41 67.5 39.5 67 38 66.5001L7.5 54.5001L30 41.7173M42.5 69.0001H38M42.5 69.0001H47M42.5 45.5001L29 41.4147L1.5 55.5001L38 69.0001M42.5 45.5001L56 41.4147L83.5 55.5001L47 69.0001M38 69.0001C41 72.5 44 72.5 47 69.0001M39.2273 21H24.5M24.5 21V1H44.5C44.5 1 44.5 6.88852 44.5 10.6616M24.5 21L32 26.625H43.3358M38.6212 18.5L50.6212 2.5L66.6212 14.5L54.6212 30.5M38.6212 18.5L54.6212 30.5M38.6212 18.5L40 24.1875L50.5 31.86L54.6212 30.5M53 8.46905C53.2761 8.46905 53.5 8.69291 53.5 8.96905C53.5 9.24519 53.2761 9.46905 53 9.46905C52.7239 9.46905 52.5 9.24519 52.5 8.96905C52.5 8.69291 52.7239 8.46905 53 8.46905ZM49.4563 12.781C49.7325 12.781 49.9563 13.0049 49.9563 13.281C49.9563 13.5572 49.7325 13.781 49.4563 13.781C49.1802 13.781 48.9563 13.5572 48.9563 13.281C48.9563 13.0049 49.1802 12.781 49.4563 12.781ZM46 17.526C46.2761 17.526 46.5 17.7499 46.5 18.026C46.5 18.3022 46.2761 18.526 46 18.526C45.7239 18.526 45.5 18.3022 45.5 18.026C45.5 17.7499 45.7239 17.526 46 17.526ZM59.7689 13.469C60.045 13.469 60.2689 13.6929 60.2689 13.969C60.2689 14.2452 60.045 14.469 59.7689 14.469C59.4927 14.469 59.2689 14.2452 59.2689 13.969C59.2689 13.6929 59.4927 13.469 59.7689 13.469ZM56.2252 17.781C56.5013 17.781 56.7252 18.0049 56.7252 18.281C56.7252 18.5572 56.5013 18.781 56.2252 18.781C55.949 18.781 55.7252 18.5572 55.7252 18.281C55.7252 18.0049 55.949 17.781 56.2252 17.781ZM53 22.5C53.2761 22.5 53.5 22.7239 53.5 23C53.5 23.2761 53.2761 23.5 53 23.5C52.7239 23.5 52.5 23.2761 52.5 23C52.5 22.7239 52.7239 22.5 53 22.5ZM34.6319 10.5C34.908 10.5 35.1319 10.7239 35.1319 11C35.1319 11.2761 34.908 11.5 34.6319 11.5C34.3558 11.5 34.1319 11.2761 34.1319 11C34.1319 10.7239 34.3558 10.5 34.6319 10.5ZM29 5C29.2761 5 29.5 5.22386 29.5 5.5C29.5 5.77614 29.2761 6 29 6C28.7239 6 28.5 5.77614 28.5 5.5C28.5 5.22386 28.7239 5 29 5ZM39.4784 15.1458C39.7546 15.1458 39.9784 15.3697 39.9784 15.6458C39.9784 15.9219 39.7546 16.1458 39.4784 16.1458C39.2023 16.1458 38.9784 15.9219 38.9784 15.6458C38.9784 15.3697 39.2023 15.1458 39.4784 15.1458ZM35.8 23.7C36.0761 23.7 36.5 23.7239 36.5 24C36.5 24.2761 36.2761 24.3 36 24.3C35.7239 24.3 35.5 24.2761 35.5 24C35.5 23.7239 35.5239 23.7 35.8 23.7ZM42.7077 23.2C42.9839 23.2 43.2077 23.4239 43.2077 23.7C43.2077 23.9761 43.2839 23.9 43.0077 23.9C42.7316 23.9 42.5077 23.6761 42.5077 23.4C42.5077 23.1239 42.4316 23.2 42.7077 23.2ZM48.2 28.3C48.4761 28.3 48.7 28.5239 48.7 28.8C48.7 29.0761 48.7761 29 48.5 29C48.2239 29 48 28.7761 48 28.5C48 28.2239 47.9239 28.3 48.2 28.3Z" stroke="black"/>
</svg>
